<svg width="171" height="23" viewBox="0 0 171 23" fill="none" xmlns="http://www.w3.org/2000/svg">
<path d="M135.354 9.8472L132.729 0.171387H136.024L137.527 6.3265L139.896 0.171387H143.27L145.415 6.3265L147.029 0.171387H149.987L147.194 9.8472H143.783L141.4 3.26117L138.848 9.8472H135.357H135.354ZM150.858 9.8472V0.171387H159.486V2.25875H154.101V3.79905H159.082V5.85891H154.101V7.73539H159.691V9.8472H150.861H150.858ZM164.183 2.13344V4.15357H165.889C166.304 4.15357 166.613 4.068 166.821 3.89991C167.025 3.73182 167.129 3.47816 167.129 3.14198C167.129 2.80886 167.025 2.55825 166.818 2.38711C166.61 2.21596 166.301 2.13039 165.889 2.13039H164.183V2.13344ZM164.183 5.76111V7.88514H166.145C166.61 7.88514 166.961 7.79651 167.2 7.6162C167.438 7.43589 167.557 7.17306 167.557 6.8216C167.557 6.4732 167.438 6.20731 167.203 6.03005C166.964 5.84974 166.613 5.76111 166.142 5.76111H164.18H164.183ZM161.041 9.8472V0.171387H167.038C167.75 0.171387 168.272 0.201948 168.599 0.260015C168.929 0.318083 169.217 0.41588 169.467 0.550351C169.804 0.733721 170.06 0.990439 170.237 1.32662C170.415 1.65668 170.503 2.05093 170.503 2.50018C170.503 3.04724 170.347 3.49344 170.03 3.8449C169.715 4.19635 169.22 4.47446 168.541 4.67923C169.357 4.87177 169.953 5.17127 170.323 5.5808C170.693 5.98727 170.876 6.54043 170.876 7.23418C170.876 8.09296 170.62 8.74087 170.112 9.18707C169.602 9.63021 168.85 9.85331 167.854 9.85331H161.041V9.8472Z" fill="white"/>
<path fill-rule="evenodd" clip-rule="evenodd" d="M26.827 2.61325C27.588 2.07536 28.3979 1.61083 29.2597 1.24409C30.8489 0.568674 32.542 0.266113 34.2657 0.266113C36.729 0.266113 39.2534 0.846784 40.9251 2.78745C42.609 4.73117 42.7771 7.25862 42.3034 9.68215L39.8707 22.078H27.6888L30.1766 9.40404C30.201 9.2818 30.2407 9.02813 30.2438 8.82948C30.1918 8.82643 30.1429 8.82643 30.1093 8.82643C29.6692 8.82643 29.3453 8.93034 29.0519 9.26957C28.4957 9.90525 28.1839 11.0941 28.0281 11.8979L26.0293 22.081H13.8475L16.3352 9.4071C16.3596 9.29096 16.3994 9.02508 16.3994 8.82643C16.3902 8.82643 16.381 8.82643 16.3719 8.82643C15.9073 8.82643 15.5864 8.94867 15.2778 9.29708C14.7124 9.93581 14.4037 11.0819 14.2448 11.8979L12.2461 22.081H-0.00305176L3.27621 5.38213C2.80862 5.18042 2.40521 4.91148 2.0782 4.50807C1.71757 4.06492 1.51892 3.52704 1.4853 2.95859L1.35388 0.684808H15.565L15.6048 1.29298C15.6445 1.27465 15.6812 1.25937 15.7209 1.24103C17.2398 0.57173 18.8596 0.269169 20.516 0.269169C22.148 0.269169 23.7983 0.565617 25.2347 1.38161C25.8307 1.7239 26.3625 2.13954 26.824 2.6163L26.827 2.61325ZM2.61302 19.9295L5.40941 5.69386C5.93813 3.01055 3.69796 3.89989 3.63378 2.83329H13.5541C13.5755 3.17864 13.5663 3.57594 13.5266 4.03742C13.4869 4.50196 13.4074 5.01845 13.2943 5.59301C14.2906 4.53252 15.3908 3.73792 16.5889 3.2092C17.7869 2.68048 19.098 2.42071 20.5191 2.42071C21.9769 2.42071 23.1993 2.69882 24.1712 3.24893C25.14 3.80515 25.8827 4.6456 26.3961 5.76415C27.6002 4.61198 28.8319 3.76542 30.1002 3.22754C31.3685 2.68659 32.7621 2.42071 34.2657 2.42071C36.5976 2.42071 38.2754 3.01055 39.2992 4.19634C40.3261 5.38213 40.6256 7.07525 40.1916 9.26957L38.0981 19.9295H30.2988L32.2823 9.81968C32.484 8.7867 32.4015 8.00432 32.0286 7.4756C31.6557 6.94077 31.017 6.67489 30.1093 6.67489C29.0091 6.67489 28.1137 7.06608 27.4321 7.85457C26.7445 8.64306 26.2402 9.8533 25.9193 11.4822L24.2598 19.9295H16.4605L18.447 9.81968C18.6395 8.83254 18.5601 8.05933 18.1964 7.50311C17.8327 6.953 17.2245 6.67489 16.3719 6.67489C15.2717 6.67489 14.3762 7.07219 13.6672 7.8729C12.9581 8.67362 12.4508 9.87164 12.136 11.4822L10.4765 19.9295H2.60997H2.61302Z" fill="white"/>
<path d="M48.4647 9.84696V0.171145H53.8496L56.3373 6.16734L58.7548 0.171145H63.7547V9.84696H60.6496V2.05374L57.3948 9.84696H54.9223L51.5758 2.05374V9.84696H48.4586H48.4647ZM72.1316 5.98702L70.5821 2.47244L68.944 5.98702H72.1316ZM67.1959 9.84696H63.9472L68.9624 0.171145H72.5564L77.3393 9.84696H73.733L73.0026 8.10189H67.9783L67.1959 9.84696ZM86.141 9.84696C85.7957 9.84696 85.2639 9.87752 84.5457 9.93559C83.8306 9.99671 83.2866 10.0242 82.9137 10.0242C80.9486 10.0242 79.4664 9.59941 78.4701 8.74674C77.4738 7.89713 76.9726 6.63799 76.9726 4.97238C76.9726 3.37706 77.4982 2.14848 78.5526 1.2897C79.607 0.430919 81.1137 0 83.0727 0C84.94 0 86.3703 0.403414 87.3605 1.21024C88.3537 2.02012 88.8488 3.17841 88.8488 4.69121C88.8488 5.48887 88.7113 6.18873 88.4393 6.79385C88.1673 7.40203 87.7425 7.93686 87.171 8.41056C87.6111 8.2058 88.0512 8.05299 88.4821 7.94908C88.913 7.84517 89.347 7.79322 89.7809 7.79322C89.8971 7.79322 89.9888 7.79322 90.0468 7.79627C90.108 7.79933 90.1599 7.80239 90.2088 7.8085V9.84696H86.141ZM80.3343 5.09157C80.3343 6.07871 80.5574 6.81524 81.0006 7.31646C81.4468 7.81461 82.11 8.06522 82.9932 8.06522C83.8887 8.06522 84.5641 7.82072 85.0164 7.33174C85.4687 6.84581 85.6949 6.1215 85.6949 5.15575C85.6949 4.11665 85.4626 3.32511 84.998 2.78111C84.5335 2.23711 83.8581 1.96511 82.9657 1.96511C82.1344 1.96511 81.4865 2.23711 81.025 2.78416C80.5636 3.33122 80.3343 4.10137 80.3343 5.09157ZM90.7589 0.171145H93.9679V5.68141C93.9679 6.48518 94.1513 7.08113 94.5211 7.46926C94.8909 7.8574 95.4624 8.04993 96.2294 8.04993C96.9813 8.04993 97.5436 7.85434 97.9165 7.46009C98.2893 7.06891 98.4727 6.47601 98.4727 5.68446V0.174201H101.59V5.64473C101.59 7.15448 101.15 8.25775 100.276 8.96067C99.3987 9.66053 98.0112 10.012 96.1194 10.012C94.2399 10.012 92.8738 9.66359 92.0272 8.9729C91.1807 8.27915 90.7559 7.16976 90.7559 5.64168V0.171145H90.7589ZM103.311 9.84696V0.171145H106.617V9.84696H103.311ZM108.378 9.84696V0.171145H112.479L116.868 6.66549V0.171145H119.979V9.84696H115.728L111.483 3.33122V9.84696H108.378ZM128.35 5.98702L126.8 2.47244L125.162 5.98702H128.353H128.35ZM123.414 9.84696H120.168L125.184 0.171145H128.778L133.56 9.84696H129.954L129.224 8.10189H124.199L123.417 9.84696H123.414Z" fill="white"/>
<path d="M47.9237 18.5846L48.8558 18.4379C48.9078 18.8108 49.0545 19.098 49.2929 19.2967C49.5312 19.4953 49.8644 19.5962 50.2953 19.5962C50.7293 19.5962 51.0502 19.5076 51.258 19.3303C51.4689 19.1531 51.5728 18.9452 51.5728 18.7099C51.5728 18.496 51.4811 18.3279 51.2947 18.2056C51.1663 18.1201 50.8454 18.0162 50.332 17.8878C49.6413 17.7105 49.1615 17.5608 48.8956 17.4324C48.6297 17.3041 48.4249 17.1299 48.2874 16.9037C48.1499 16.6776 48.0796 16.43 48.0796 16.158C48.0796 15.9105 48.1376 15.6813 48.2507 15.4704C48.3638 15.2564 48.5197 15.0822 48.7153 14.9417C48.8619 14.8347 49.0637 14.74 49.3143 14.6666C49.5679 14.5902 49.8399 14.5535 50.1303 14.5535C50.5673 14.5535 50.9493 14.6177 51.2794 14.743C51.6094 14.8683 51.8539 15.0395 52.0098 15.2534C52.1657 15.4704 52.2726 15.7546 52.3338 16.1152L51.4138 16.2436C51.3711 15.9563 51.2488 15.7332 51.0502 15.5712C50.8485 15.4093 50.5642 15.3298 50.1975 15.3298C49.7635 15.3298 49.4548 15.4001 49.2715 15.5437C49.085 15.6874 48.9934 15.8555 48.9934 16.0449C48.9934 16.1672 49.0331 16.2772 49.1095 16.375C49.1859 16.4759 49.3051 16.5584 49.4701 16.6287C49.5649 16.6623 49.843 16.7417 50.3045 16.867C50.9707 17.0443 51.4383 17.191 51.6981 17.3041C51.964 17.4172 52.1687 17.5822 52.3215 17.7992C52.4713 18.0162 52.5477 18.2851 52.5477 18.606C52.5477 18.9208 52.456 19.2172 52.2726 19.4953C52.0893 19.7735 51.8234 19.9874 51.478 20.1402C51.1327 20.293 50.7415 20.3663 50.3045 20.3663C49.5801 20.3663 49.03 20.2166 48.6511 19.9171C48.2721 19.6176 48.0307 19.1714 47.9268 18.5816L47.9237 18.5846ZM57.9296 17.463C57.9296 16.4331 58.2169 15.669 58.7914 15.1739C59.2682 14.7613 59.8519 14.5535 60.5395 14.5535C61.3036 14.5535 61.9301 14.8041 62.416 15.3053C62.902 15.8066 63.1434 16.4972 63.1434 17.3805C63.1434 18.0987 63.0364 18.661 62.8225 19.0705C62.6086 19.4831 62.2938 19.801 61.8843 20.0271C61.4717 20.2533 61.0255 20.3663 60.5395 20.3663C59.7602 20.3663 59.1307 20.1188 58.6508 19.6176C58.171 19.1194 57.9296 18.3982 57.9296 17.4599V17.463ZM58.8984 17.463C58.8984 18.1751 59.0543 18.7099 59.366 19.0644C59.6777 19.4189 60.0689 19.5962 60.5395 19.5962C61.0071 19.5962 61.3983 19.4159 61.7101 19.0614C62.0187 18.7069 62.1746 18.1629 62.1746 17.4324C62.1746 16.7448 62.0187 16.2222 61.707 15.8677C61.3953 15.5132 61.0071 15.3359 60.5395 15.3359C60.0689 15.3359 59.6777 15.5132 59.366 15.8646C59.0543 16.2161 58.8984 16.7509 58.8984 17.4599V17.463ZM68.8431 20.2472V12.564H69.7844V20.2472H68.8431ZM79.5092 20.2472V19.4312C79.0752 20.0607 78.4853 20.3725 77.7427 20.3725C77.4157 20.3725 77.107 20.3113 76.8228 20.186C76.5386 20.0607 76.3277 19.9018 76.1902 19.7123C76.0496 19.5228 75.9548 19.2875 75.8998 19.0125C75.8632 18.826 75.8418 18.5327 75.8418 18.1292V14.6819H76.7831V17.7656C76.7831 18.2607 76.8014 18.5907 76.8411 18.7619C76.9022 19.0094 77.0276 19.205 77.217 19.3456C77.4096 19.4862 77.648 19.5565 77.9322 19.5565C78.2133 19.5565 78.4792 19.4862 78.7268 19.3395C78.9743 19.1958 79.1516 18.9972 79.2524 18.7466C79.3563 18.496 79.4083 18.1323 79.4083 17.6586V14.6788H80.3496V20.2441H79.5061L79.5092 20.2472ZM90.0774 18.2087L91.0034 18.3309C90.9025 18.9697 90.6428 19.4709 90.2241 19.8315C89.8084 20.1921 89.295 20.3725 88.6868 20.3725C87.9258 20.3725 87.3146 20.1249 86.8501 19.6268C86.3886 19.1286 86.1533 18.4165 86.1533 17.4874C86.1533 16.8854 86.2541 16.3597 86.4528 15.9105C86.6545 15.4582 86.954 15.122 87.3635 14.8958C87.77 14.6697 88.2131 14.5566 88.6899 14.5566C89.295 14.5566 89.7901 14.7094 90.1721 15.0181C90.5572 15.3237 90.8047 15.7577 90.9117 16.32L89.9949 16.4606C89.9062 16.0877 89.7534 15.8066 89.5334 15.6171C89.3103 15.4306 89.0444 15.3328 88.7296 15.3328C88.2528 15.3328 87.8678 15.504 87.5713 15.8432C87.2749 16.1825 87.1251 16.7203 87.1251 17.4599C87.1251 18.2087 87.2688 18.7496 87.556 19.0919C87.8433 19.4312 88.2162 19.5993 88.6776 19.5993C89.0474 19.5993 89.3561 19.4862 89.6037 19.257C89.8512 19.0308 90.0101 18.6824 90.0743 18.2087H90.0774ZM87.8922 20.947L88.1642 20.021H88.8671L88.6929 20.5803C88.9894 20.617 89.2125 20.7086 89.3622 20.8553C89.512 21.0051 89.5884 21.1671 89.5884 21.3504C89.5884 21.6102 89.4631 21.8455 89.2094 22.0442C88.9588 22.2459 88.5798 22.3437 88.0725 22.3437C87.7852 22.3437 87.5377 22.3254 87.3176 22.2795L87.3757 21.6652C87.5988 21.6805 87.7639 21.6866 87.8678 21.6866C88.1978 21.6866 88.427 21.6408 88.5615 21.5491C88.6624 21.4788 88.7143 21.3932 88.7143 21.2924C88.7143 21.2282 88.696 21.1732 88.6532 21.1273C88.6135 21.0784 88.5401 21.0356 88.4301 20.999C88.3201 20.9654 88.1398 20.944 87.8892 20.9409L87.8922 20.947ZM96.0736 17.463C96.0736 16.4331 96.3608 15.669 96.9324 15.1739C97.4091 14.7613 97.9928 14.5535 98.6805 14.5535C99.4445 14.5535 100.071 14.8041 100.557 15.3053C101.043 15.8066 101.284 16.4972 101.284 17.3805C101.284 18.0987 101.177 18.661 100.963 19.0705C100.749 19.4831 100.435 19.801 100.025 20.0271C99.6126 20.2533 99.1664 20.3663 98.6805 20.3663C97.9012 20.3663 97.2716 20.1188 96.7918 19.6176C96.3119 19.1194 96.0705 18.3982 96.0705 17.4599L96.0736 17.463ZM97.0424 17.463C97.0424 18.1751 97.1982 18.7099 97.51 19.0644C97.8217 19.4189 98.2129 19.5962 98.6835 19.5962C99.1511 19.5962 99.5423 19.4159 99.854 19.0614C100.163 18.7069 100.319 18.1629 100.319 17.4324C100.319 16.7448 100.163 16.2222 99.851 15.8677C99.5393 15.5132 99.1511 15.3359 98.6835 15.3359C98.2129 15.3359 97.8217 15.5132 97.51 15.8646C97.1982 16.2161 97.0424 16.7509 97.0424 17.4599V17.463ZM96.9293 13.8598C96.9262 13.4961 97.024 13.2058 97.2288 12.9888C97.4274 12.7718 97.6811 12.6648 97.9928 12.6648C98.2098 12.6648 98.5032 12.7565 98.8791 12.949C99.0869 13.056 99.2489 13.1049 99.3742 13.1049C99.4842 13.1049 99.5698 13.0743 99.6309 13.0132C99.6921 12.949 99.7318 12.8299 99.7593 12.6495H100.438C100.429 13.0468 100.328 13.3463 100.138 13.545C99.9488 13.7436 99.7043 13.8445 99.4109 13.8445C99.1908 13.8445 98.9005 13.7467 98.5429 13.5511C98.3076 13.4258 98.1365 13.3616 98.0295 13.3616C97.9103 13.3616 97.8156 13.4044 97.7422 13.4869C97.6658 13.5725 97.6291 13.6947 97.6322 13.8598H96.9354H96.9293ZM110.816 18.4532L111.791 18.5724C111.639 19.1439 111.354 19.584 110.939 19.8988C110.523 20.2105 109.991 20.3694 109.346 20.3694C108.534 20.3694 107.889 20.1188 107.412 19.6176C106.935 19.1164 106.697 18.4135 106.697 17.5088C106.697 16.5706 106.938 15.8463 107.418 15.3298C107.901 14.8133 108.524 14.5535 109.295 14.5535C110.037 14.5535 110.645 14.8072 111.116 15.3145C111.587 15.8218 111.825 16.5339 111.825 17.4508C111.825 17.5088 111.822 17.5914 111.819 17.7044H107.669C107.702 18.3157 107.876 18.7863 108.188 19.1072C108.5 19.4312 108.885 19.5962 109.35 19.5962C109.695 19.5962 109.988 19.5045 110.236 19.3211C110.48 19.1408 110.673 18.8505 110.816 18.4532ZM107.721 16.9282H110.829C110.789 16.4606 110.667 16.1091 110.474 15.8768C110.175 15.5132 109.784 15.3298 109.307 15.3298C108.873 15.3298 108.509 15.4734 108.213 15.7638C107.916 16.0541 107.754 16.4422 107.724 16.9251L107.721 16.9282ZM117.213 18.5846L118.145 18.4379C118.197 18.8108 118.344 19.098 118.582 19.2967C118.821 19.4953 119.154 19.5962 119.585 19.5962C120.019 19.5962 120.34 19.5076 120.547 19.3303C120.758 19.1531 120.862 18.9452 120.862 18.7099C120.862 18.496 120.77 18.3279 120.584 18.2056C120.456 18.1201 120.132 18.0162 119.621 17.8878C118.931 17.7105 118.451 17.5608 118.182 17.4324C117.916 17.3041 117.711 17.1299 117.574 16.9037C117.436 16.6776 117.366 16.43 117.366 16.158C117.366 15.9105 117.424 15.6813 117.537 15.4704C117.65 15.2564 117.806 15.0822 117.998 14.9417C118.145 14.8347 118.347 14.74 118.597 14.6666C118.851 14.5902 119.123 14.5535 119.413 14.5535C119.851 14.5535 120.233 14.6177 120.563 14.743C120.893 14.8683 121.137 15.0395 121.293 15.2534C121.449 15.4704 121.559 15.7546 121.617 16.1152L120.697 16.2436C120.654 15.9563 120.532 15.7332 120.333 15.5712C120.132 15.4093 119.847 15.3298 119.481 15.3298C119.05 15.3298 118.738 15.4001 118.555 15.5437C118.368 15.6874 118.277 15.8555 118.277 16.0449C118.277 16.1672 118.316 16.2772 118.393 16.375C118.469 16.4759 118.588 16.5584 118.753 16.6287C118.848 16.6623 119.126 16.7417 119.588 16.867C120.254 17.0443 120.722 17.191 120.984 17.3041C121.25 17.4172 121.455 17.5822 121.608 17.7992C121.758 18.0162 121.834 18.2851 121.834 18.606C121.834 18.9208 121.742 19.2172 121.559 19.4953C121.376 19.7735 121.11 19.9874 120.764 20.1402C120.419 20.293 120.028 20.3663 119.591 20.3663C118.866 20.3663 118.316 20.2166 117.937 19.9171C117.558 19.6176 117.317 19.1714 117.213 18.5816V18.5846ZM134.361 18.4532L135.336 18.5724C135.183 19.1439 134.899 19.584 134.483 19.8988C134.068 20.2105 133.536 20.3694 132.891 20.3694C132.078 20.3694 131.43 20.1188 130.957 19.6176C130.48 19.1164 130.241 18.4135 130.241 17.5088C130.241 16.5706 130.483 15.8463 130.963 15.3298C131.446 14.8133 132.069 14.5535 132.839 14.5535C133.585 14.5535 134.19 14.8072 134.661 15.3145C135.131 15.8218 135.37 16.5339 135.37 17.4508C135.37 17.5088 135.367 17.5914 135.364 17.7044H131.213C131.247 18.3157 131.421 18.7863 131.733 19.1072C132.045 19.4312 132.43 19.5962 132.894 19.5962C133.24 19.5962 133.533 19.5045 133.781 19.3211C134.025 19.1408 134.218 18.8505 134.361 18.4532ZM131.265 16.9282H134.373C134.334 16.4606 134.211 16.1091 134.019 15.8768C133.719 15.5132 133.328 15.3298 132.851 15.3298C132.417 15.3298 132.054 15.4734 131.757 15.7638C131.461 16.0541 131.299 16.4422 131.268 16.9251L131.265 16.9282ZM141.137 20.2472V14.6819H141.98V15.4612C142.154 15.1892 142.387 14.9692 142.677 14.8041C142.967 14.6391 143.297 14.5535 143.667 14.5535C144.08 14.5535 144.416 14.6391 144.679 14.8102C144.945 14.9814 145.128 15.2198 145.238 15.5284C145.681 14.8805 146.253 14.5535 146.956 14.5535C147.509 14.5535 147.934 14.7063 148.23 15.015C148.526 15.3206 148.676 15.7913 148.676 16.427V20.2472H147.738V16.7417C147.738 16.3658 147.707 16.0938 147.646 15.9257C147.585 15.7607 147.472 15.6262 147.313 15.5254C147.151 15.4245 146.962 15.3726 146.745 15.3726C146.354 15.3726 146.03 15.504 145.77 15.7638C145.513 16.0235 145.382 16.4392 145.382 17.0137V20.2472H144.44V16.6317C144.44 16.21 144.364 15.8952 144.211 15.6874C144.058 15.4765 143.808 15.3726 143.456 15.3726C143.19 15.3726 142.946 15.4429 142.72 15.5835C142.494 15.724 142.329 15.9257 142.231 16.1947C142.127 16.4636 142.078 16.8518 142.078 17.3591V20.2441H141.137V20.2472ZM159.553 20.2472V13.4716H157.023V12.564H163.111V13.4716H160.571V20.2472H159.556H159.553ZM168.942 20.2472V12.564H169.956V20.2472H168.942Z" fill="white"/>
</svg>
